/* XPM */
static char *tiles[] = {
/* width height ncolors chars_per_pixel */
"20 200 44 2",
/* colors */
"AA c #F8F8F8F80000",
"BA c #F8F8D8D8C8C8",
"CA c #F8F8B0B0F8F8",
"DA c #F8F8B0B0A8A8",
"EA c #F8F8B0B05050",
"FA c #F8F800000000",
"GA c #E8E8E8E80000",
"HA c #E8E8A8A8A0A0",
"IA c #D8D8D8D80000",
"JA c #C8C8C8C80000",
"KA c #C0C0A8A8A0A0",
"LA c #B8B888888080",
"MA c #B0B0B0B00000",
"NA c #A8A878787070",
"OA c #A0A0A0A00000",
"PA c #989870706868",
"AB c #909090900000",
"BB c #888888880000",
"CB c #808058588080",
"DB c #808058582828",
"EB c #787878780000",
"FB c #787858585050",
"GB c #787800000000",
"HB c #707060605858",
"IB c #686868680000",
"JB c #585858580000",
"KB c #484848480000",
"LB c #404030304040",
"MB c #404028282828",
"NB c #404028281010",
"OB c #404000000000",
"PB c #383830303030",
"AC c #303020202020",
"BC c #282828280000",
"CC c #1818F8F8F8F8",
"DC c #18182020F0F0",
"EC c #181820209090",
"FC c #181818181010",
"GC c #181818180000",
"HC c #101080808080",
"IC c #101008080808",
"JC c #080840404040",
"KC c #000080800000",
"LC c #000000000000",
/* pixels */
"LCLCDCDCDCDCDCDCDCDCDCDCDCDCDCDCDCDCLCLC",
"LCDCDCECECECECECECECECECECECECECECDCDCLC",
"DCDCECECECECECECECECECECECECECECECECDCDC",
"DCECECECECECECECECECECECECECECECECECECDC",
"DCECECECECECECECECECECECECECECECECECECDC",
"DCECECECECECECECECECECECECECECECECECECDC",
"DCECECECECECECECECECECECECECECECECECECDC",
"DCECECECECECECECECECECECECECECECECECECDC",
"DCECECECECECECECECECECECECECECECECECECDC",
"DCECECECECECECECECECECECECECECECECECECDC",
"DCECECECECECECECECECECECECECECECECECECDC",
"DCECECECECECECECECECECECECECECECECECECDC",
"DCECECECECECECECECECECECECECECECECECECDC",
"DCECECECECECECECECECECECECECECECECECECDC",
"DCECECECECECECECECECECECECECECECECECECDC",
"DCECECECECECECECECECECECECECECECECECECDC",
"DCECECECECECECECECECECECECECECECECECECDC",
"DCDCECECECECECECECECECECECECECECECECDCDC",
"LCDCDCECECECECECECECECECECECECECECDCDCLC",
"LCLCDCDCDCDCDCDCDCDCDCDCDCDCDCDCDCDCLCLC",
"LCLCLCLCLCLCLCLCLCLCLCLCLCLCLCLCLCLCLCLC",
"LCLCLCLCLCLCLCLCLCLCLCLCLCLCLCLCLCLCLCLC",
"LCLCLCLCLCLCLCLCLCLCLCLCLCLCLCLCLCLCLCLC",
"LCLCLCLCLCLCLCLCLCLCLCLCLCLCLCLCLCLCLCLC",
"LCLCLCLCLCLCLCLCLCLCLCLCLCLCLCLCLCLCLCLC",
"LCLCLCLCLCLCLCLCLCLCLCLCLCLCLCLCLCLCLCLC",
"LCLCLCLCLCLCLCLCLCLCLCLCLCLCLCLCLCLCLCLC",
"LCLCLCLCLCLCLCLCLCLCLCLCLCLCLCLCLCLCLCLC",
"LCLCLCLCLCLCLCLCLCLCLCLCLCLCLCLCLCLCLCLC",
"LCLCLCLCLCLCLCLCLCLCLCLCLCLCLCLCLCLCLCLC",
"LCLCLCLCLCLCLCLCLCLCLCLCLCLCLCLCLCLCLCLC",
"LCLCLCLCLCLCLCLCLCLCLCLCLCLCLCLCLCLCLCLC",
"LCLCLCLCLCLCLCLCLCLCLCLCLCLCLCLCLCLCLCLC",
"LCLCLCLCLCLCLCLCLCLCLCLCLCLCLCLCLCLCLCLC",
"LCLCLCLCLCLCLCLCLCLCLCLCLCLCLCLCLCLCLCLC",
"LCLCLCLCLCLCLCLCLCLCLCLCLCLCLCLCLCLCLCLC",
"LCLCLCLCLCLCLCLCLCLCLCLCLCLCLCLCLCLCLCLC",
"LCLCLCLCLCLCLCLCLCLCLCLCLCLCLCLCLCLCLCLC",
"LCLCLCLCLCLCLCLCLCLCLCLCLCLCLCLCLCLCLCLC",
"LCLCLCLCLCLCLCLCLCLCLCLCLCLCLCLCLCLCLCLC",
"LCLCLCLCLCLCLCLCLCLCLCLCLCLCLCLCLCLCLCLC",
"LCLCLCLCLCLCLCLCLCLCLCLCLCLCLCLCLCLCLCLC",
"LCLCLCLCLCLCLCLCLCLCLCLCLCLCLCLCLCLCLCLC",
"LCLCLCLCLCLCLCLCLCLCLCLCLCLCLCLCLCLCLCLC",
"LCLCLCLCLCLCLCLCLCLCLCLCLCLCLCLCLCLCLCLC",
"LCLCLCLCLCLCLCLCLCLCLCLCLCLCLCLCLCLCLCLC",
"LCLCLCLCLCLCLCLCLCLCLCLCLCLCLCLCLCLCLCLC",
"LCLCLCLCLCLCLCLCFCPBPBFCLCLCLCLCLCLCLCLC",
"LCLCLCLCLCLCLCFCHBKAKAHBFCLCLCLCLCLCLCLC",
"LCLCLCLCLCLCLCPBKABABAKAPBLCLCLCLCLCLCLC",
"LCLCLCLCLCLCLCPBKABABAKAPBLCLCLCLCLCLCLC",
"LCLCLCLCLCLCLCFCHBKAKAHBFCLCLCLCLCLCLCLC",
"LCLCLCLCLCLCLCLCFCPBPBFCLCLCLCLCLCLCLCLC",
"LCLCLCLCLCLCLCLCLCLCLCLCLCLCLCLCLCLCLCLC",
"LCLCLCLCLCLCLCLCLCLCLCLCLCLCLCLCLCLCLCLC",
"LCLCLCLCLCLCLCLCLCLCLCLCLCLCLCLCLCLCLCLC",
"LCLCLCLCLCLCLCLCLCLCLCLCLCLCLCLCLCLCLCLC",
"LCLCLCLCLCLCLCLCLCLCLCLCLCLCLCLCLCLCLCLC",
"LCLCLCLCLCLCLCLCLCLCLCLCLCLCLCLCLCLCLCLC",
"LCLCLCLCLCLCLCLCLCLCLCLCLCLCLCLCLCLCLCLC",
"LCLCLCLCLCLCLCLCLCLCLCLCLCLCLCLCLCLCLCLC",
"LCLCLCLCLCLCLCLCLCLCLCLCLCLCLCLCLCLCLCLC",
"LCLCLCLCLCLCLCLCLCLCLCLCLCLCLCLCLCLCLCLC",
"LCLCLCLCLCLCLCICACMBMBACICLCLCLCLCLCLCLC",
"LCLCLCLCLCLCACFBNALALANAFBACLCLCLCLCLCLC",
"LCLCLCLCLCACPAHADADADADAHAPAACLCLCLCLCLC",
"LCLCLCLCACPAHADADADADADADAHAPAACLCLCLCLC",
"LCLCLCICFBHADADADADADADADADAHAFBICLCLCLC",
"LCLCLCACNADADADADADADADADADADANAACLCLCLC",
"LCLCLCMBLADADADADADADADADADADALAMBLCLCLC",
"LCLCLCMBLADADADADADADADADADADALAMBLCLCLC",
"LCLCLCACNADADADADADADADADADADANAACLCLCLC",
"LCLCLCICFBHADADADADADADADADAHAFBICLCLCLC",
"LCLCLCLCACPAHADADADADADADAHAPAACLCLCLCLC",
"LCLCLCLCLCACPAHADADADADAHAPAACLCLCLCLCLC",
"LCLCLCLCLCLCACFBNALALANAFBACLCLCLCLCLCLC",
"LCLCLCLCLCLCLCICACMBMBACICLCLCLCLCLCLCLC",
"LCLCLCLCLCLCLCLCLCLCLCLCLCLCLCLCLCLCLCLC",
"LCLCLCLCLCLCLCLCLCLCLCLCLCLCLCLCLCLCLCLC",
"LCLCLCLCLCLCLCLCLCLCLCLCLCLCLCLCLCLCLCLC",
"LCLCLCLCLCLCLCLCLCLCLCLCLCLCLCLCLCLCLCLC",
"LCLCLCLCLCLCLCLCLCLCLCLCLCLCLCLCLCLCLCLC",
"LCLCLCLCLCLCLCLCLCLCLCLCLCLCLCLCLCLCLCLC",
"LCLCLCLCLCLCLCICACMBMBKCKCKCKCKCLCLCLCLC",
"LCLCLCLCLCLCACFBNALAKCKCKCKCKCKCKCLCLCLC",
"LCLCLCLCLCACPAHADADAKCKCKCKCKCKCKCLCLCLC",
"LCLCLCLCACPAHADADADAKCKCKCKCKCKCKCLCLCLC",
"LCLCLCICFBHADADADADADAKCKCKCKCKCICLCLCLC",
"LCLCLCACNADADADADADADADADADADANAACLCLCLC",
"LCLCLCMBLADADADADADADADADADADALAMBLCLCLC",
"LCLCLCMBLADADADADADADADADADADALAMBLCLCLC",
"LCLCLCACNADADADADADADADADADADANAACLCLCLC",
"LCLCLCICFBHADADADADADADADADAHAFBICLCLCLC",
"LCLCLCLCACPAHADADADADADADAHAPAACLCLCLCLC",
"LCLCLCLCLCACPAHADADADADAHAPAACLCLCLCLCLC",
"LCLCLCLCLCLCACFBNALALANAFBACLCLCLCLCLCLC",
"LCLCLCLCLCLCLCICACMBMBACICLCLCLCLCLCLCLC",
"LCLCLCLCLCLCLCLCLCLCLCLCLCLCLCLCLCLCLCLC",
"LCLCLCLCLCLCLCLCLCLCLCLCLCLCLCLCLCLCLCLC",
"LCLCLCLCLCLCLCLCLCLCLCLCLCLCLCLCLCLCLCLC",
"LCLCLCLCLCLCLCLCLCLCLCLCLCLCLCLCLCLCLCLC",
"LCLCLCLCLCLCAAAAIAEBLCLCLCLCLCLCLCLCLCLC",
"LCLCLCLCLCLCAAAAAAAABBLCLCLCLCLCLCLCLCLC",
"LCLCLCLCLCLCLCGCABAAAALCLCLCLCLCLCLCLCLC",
"LCLCLCLCLCLCLCLCLCJAAAIBLCLCLCLCLCLCLCLC",
"LCLCLCLCLCLCLCLCLCJBAAJALCLCLCLCLCLCLCLC",
"LCLCLCLCLCLCLCLCLCLCAAAABCLCLCLCLCLCLCLC",
"LCLCLCLCLCLCLCLCLCJBAAAABBLCLCLCLCLCLCLC",
"LCLCLCLCLCLCLCLCLCIAAAAAGALCLCLCLCLCLCLC",
"LCLCLCLCLCLCLCLCJBAAIAJAAAJBLCLCLCLCLCLC",
"LCLCLCLCLCLCLCLCIAAAIBIBAAMALCLCLCLCLCLC",
"LCLCLCLCLCLCLCJBAAGALCLCAAAAGCLCLCLCLCLC",
"LCLCLCLCLCLCLCJAAAIBLCLCOAAAEBLCLCLCLCLC",
"LCLCLCLCLCLCKBAAGALCLCLCKBAAIALCLCLCLCLC",
"LCLCLCLCLCLCJAAAIBLCLCLCLCIAAAKBLCLCLCLC",
"LCLCLCLCLCKBAAGALCLCLCLCLCEBAAOALCLCLCLC",
"LCLCLCLCLCJAAAEBLCLCLCLCLCGCAAAALCLCLCLC",
"LCLCLCLCKBAAGALCLCLCLCLCLCLCMAAAIBLCLCLC",
"LCLCLCLCJAAAEBLCLCLCLCLCLCLCJBAAJALCLCLC",
"LCLCLCLCLCLCLCLCLCLCLCLCLCLCLCLCLCLCLCLC",
"LCLCLCLCLCLCLCLCLCLCLCLCLCLCLCLCLCLCLCLC",
"LCLCLCLCLCLCLCLCLCLCLCLCLCLCLCLCLCLCLCLC",
"LCLCLCLCLCLCLCLCLCLCLCLCLCLCLCLCLCLCLCLC",
"LCLCLCLCLCLCLCLCLCLCLCLCLCLCLCLCLCLCLCLC",
"LCLCLCLCLCLCLCLCLCLCLCLCLCLCLCLCLCLCLCLC",
"LCLCLCLCOBGBOBLCLCLCLCLCLCLCLCLCLCLCLCLC",
"LCLCLCOBFAFAFAOBLCLCGBGBGBGBGBGBGBGBLCLC",
"LCLCLCGBFAFAFAGBLCGBFAFAFAFAFAFAFAFAGBLC",
"LCLCLCOBFAFAFAOBLCLCGBGBGBGBGBGBGBGBLCLC",
"LCLCLCLCOBGBOBLCLCLCLCLCLCLCLCLCLCLCLCLC",
"LCLCLCLCLCLCLCLCLCLCLCLCLCLCLCLCLCLCLCLC",
"LCLCLCLCOBGBOBLCLCLCLCLCLCLCLCLCLCLCLCLC",
"LCLCLCOBFAFAFAOBLCLCGBGBGBGBGBGBGBGBLCLC",
"LCLCLCGBFAFAFAGBLCGBFAFAFAFAFAFAFAFAGBLC",
"LCLCLCOBFAFAFAOBLCLCGBGBGBGBGBGBGBGBLCLC",
"LCLCLCLCOBGBOBLCLCLCLCLCLCLCLCLCLCLCLCLC",
"LCLCLCLCLCLCLCLCLCLCLCLCLCLCLCLCLCLCLCLC",
"LCLCLCLCLCLCLCLCLCLCLCLCLCLCLCLCLCLCLCLC",
"LCLCLCLCLCLCLCLCLCLCLCLCLCLCLCLCLCLCLCLC",
"LCLCLCLCLCLCLCLCLCLCLCLCLCLCLCLCLCLCLCLC",
"LCLCLCLCLCLCLCLCLCLCLCLCLCLCLCLCLCLCLCLC",
"LCLCLCLCLCLCLCLCLCLCLCLCLCLCLCLCLCLCLCLC",
"LCLCLCLCLCLCLCLCLCLCLCLCLCLCLCLCLCLCLCLC",
"LCLCLCLCLCLCLCLCLCLCLCLCLCLCLCLCLCLCLCLC",
"LCLCLCLCLCLCLCLCLCLCLCLCLCLCLCLCLCLCLCLC",
"LCLCLCLCLBCBLBLCLCLCLCLCLCLCLCLCLCLCLCLC",
"LCLCLCLBCACACALBLCLCCBCBCBCBCBCBCBCBLCLC",
"LCLCLCCBCACACACBLCCBCACACACACACACACACBLC",
"LCLCLCLBCACACALBLCLCCBCBCBCBCBCBCBCBLCLC",
"LCLCLCLCLBCBLBLCLCLCLCLCLCLCLCLCLCLCLCLC",
"LCLCLCLCLCLCLCLCLCLCLCLCLCLCLCLCLCLCLCLC",
"LCLCLCLCLBCBLBLCLCLCLCLCLCLCLCLCLCLCLCLC",
"LCLCLCLBCACACALBLCLCCBCBCBCBCBCBCBCBLCLC",
"LCLCLCCBCACACACBLCCBCACACACACACACACACBLC",
"LCLCLCLBCACACALBLCLCCBCBCBCBCBCBCBCBLCLC",
"LCLCLCLCLBCBLBLCLCLCLCLCLCLCLCLCLCLCLCLC",
"LCLCLCLCLCLCLCLCLCLCLCLCLCLCLCLCLCLCLCLC",
"LCLCLCLCLCLCLCLCLCLCLCLCLCLCLCLCLCLCLCLC",
"LCLCLCLCLCLCLCLCLCLCLCLCLCLCLCLCLCLCLCLC",
"LCLCLCLCLCLCLCLCLCLCLCLCLCLCLCLCLCLCLCLC",
"LCLCLCLCLCLCLCLCLCLCLCLCLCLCLCLCLCLCLCLC",
"LCLCLCLCLCLCLCLCLCLCLCLCLCLCLCLCLCLCLCLC",
"LCLCLCLCLCLCLCLCLCLCLCLCLCLCLCLCLCLCLCLC",
"LCLCLCLCLCLCLCLCLCLCLCLCLCLCLCLCLCLCLCLC",
"LCLCLCLCLCLCLCLCLCLCLCLCLCLCLCLCLCLCLCLC",
"LCLCLCLCJCHCJCLCLCLCLCLCLCLCLCLCLCLCLCLC",
"LCLCLCJCCCCCCCJCLCLCHCHCHCHCHCHCHCHCLCLC",
"LCLCLCHCCCCCCCHCLCHCCCCCCCCCCCCCCCCCHCLC",
"LCLCLCJCCCCCCCJCLCLCHCHCHCHCHCHCHCHCLCLC",
"LCLCLCLCJCHCJCLCLCLCLCLCLCLCLCLCLCLCLCLC",
"LCLCLCLCLCLCLCLCLCLCLCLCLCLCLCLCLCLCLCLC",
"LCLCLCLCJCHCJCLCLCLCLCLCLCLCLCLCLCLCLCLC",
"LCLCLCJCCCCCCCJCLCLCHCHCHCHCHCHCHCHCLCLC",
"LCLCLCHCCCCCCCHCLCHCCCCCCCCCCCCCCCCCHCLC",
"LCLCLCJCCCCCCCJCLCLCHCHCHCHCHCHCHCHCLCLC",
"LCLCLCLCJCHCJCLCLCLCLCLCLCLCLCLCLCLCLCLC",
"LCLCLCLCLCLCLCLCLCLCLCLCLCLCLCLCLCLCLCLC",
"LCLCLCLCLCLCLCLCLCLCLCLCLCLCLCLCLCLCLCLC",
"LCLCLCLCLCLCLCLCLCLCLCLCLCLCLCLCLCLCLCLC",
"LCLCLCLCLCLCLCLCLCLCLCLCLCLCLCLCLCLCLCLC",
"LCLCLCLCLCLCLCLCLCLCLCLCLCLCLCLCLCLCLCLC",
"LCLCLCLCLCLCLCLCLCLCLCLCLCLCLCLCLCLCLCLC",
"LCLCLCLCLCLCLCLCLCLCLCLCLCLCLCLCLCLCLCLC",
"LCLCLCLCLCLCLCLCLCLCLCLCLCLCLCLCLCLCLCLC",
"LCLCLCLCLCLCLCLCLCLCLCLCLCLCLCLCLCLCLCLC",
"LCLCLCLCNBDBNBLCLCLCLCLCLCLCLCLCLCLCLCLC",
"LCLCLCNBEAEAEANBLCLCDBDBDBDBDBDBDBDBLCLC",
"LCLCLCDBEAEAEADBLCDBEAEAEAEAEAEAEAEADBLC",
"LCLCLCNBEAEAEANBLCLCDBDBDBDBDBDBDBDBLCLC",
"LCLCLCLCNBDBNBLCLCLCLCLCLCLCLCLCLCLCLCLC",
"LCLCLCLCLCLCLCLCLCLCLCLCLCLCLCLCLCLCLCLC",
"LCLCLCLCNBDBNBLCLCLCLCLCLCLCLCLCLCLCLCLC",
"LCLCLCNBEAEAEANBLCLCDBDBDBDBDBDBDBDBLCLC",
"LCLCLCDBEAEAEADBLCDBEAEAEAEAEAEAEAEADBLC",
"LCLCLCNBEAEAEANBLCLCDBDBDBDBDBDBDBDBLCLC",
"LCLCLCLCNBDBNBLCLCLCLCLCLCLCLCLCLCLCLCLC",
"LCLCLCLCLCLCLCLCLCLCLCLCLCLCLCLCLCLCLCLC",
"LCLCLCLCLCLCLCLCLCLCLCLCLCLCLCLCLCLCLCLC",
"LCLCLCLCLCLCLCLCLCLCLCLCLCLCLCLCLCLCLCLC",
"LCLCLCLCLCLCLCLCLCLCLCLCLCLCLCLCLCLCLCLC"};
