/* XPM */
static char *14400165[] = {
/* width height ncolors chars_per_pixel */
"20 200 44 2",
/* colors */
"AA c #FFFFFFFFFFFF",
"BA c #F8F8F8F80000",
"CA c #F8F8D8D8C8C8",
"DA c #F8F8B0B0F8F8",
"EA c #F8F8B0B0A8A8",
"FA c #F8F8B0B05050",
"GA c #F8F800000000",
"HA c #E8E8E8E80000",
"IA c #E8E8A8A8A0A0",
"JA c #D8D8D8D80000",
"KA c #C8C8C8C80000",
"LA c #C0C0A8A8A0A0",
"MA c #B8B888888080",
"NA c #B0B0B0B00000",
"OA c #A8A878787070",
"PA c #A0A0A0A00000",
"AB c #989870706868",
"BB c #909090900000",
"CB c #888888880000",
"DB c #808058588080",
"EB c #808058582828",
"FB c #787878780000",
"GB c #787858585050",
"HB c #787800000000",
"IB c #707060605858",
"JB c #686868680000",
"KB c #585858580000",
"LB c #484848480000",
"MB c #404030304040",
"NB c #404028282828",
"OB c #404028281010",
"PB c #404000000000",
"AC c #383830303030",
"BC c #303020202020",
"CC c #282828280000",
"DC c #1818F8F8F8F8",
"EC c #18182020F0F0",
"FC c #181820209090",
"GC c #181818181010",
"HC c #181818180000",
"IC c #101080808080",
"JC c #101008080808",
"KC c #080840404040",
"LC c #000000000000",
/* pixels */
"LCLCECECECECECECECECECECECECECECECECLCLC",
"LCECECFCFCFCFCFCFCFCFCFCFCFCFCFCFCECECLC",
"ECECFCFCFCFCFCFCFCFCFCFCFCFCFCFCFCFCECEC",
"ECFCFCFCFCFCFCFCFCFCFCFCFCFCFCFCFCFCFCEC",
"ECFCFCFCFCFCFCFCFCFCFCFCFCFCFCFCFCFCFCEC",
"ECFCFCFCFCFCFCFCFCECFCFCFCFCECFCFCFCFCEC",
"ECFCFCECFCFCFCFCFCDBFCFCFCFCDBFCFCFCFCEC",
"ECFCFCDBFCFCFCFCFCFCFCECFCFCFCFCFCFCFCEC",
"ECFCFCFCFCFCECFCFCFCFCFCFCFCFCFCECFCFCEC",
"ECFCFCFCFCFCDBFCFCFCFCFCFCFCFCFCFCFCFCEC",
"ECFCFCFCFCFCFCFCFCFCFCFCFCFCFCFCFCFCFCEC",
"ECFCFCFCECFCFCFCFCFCFCFCDBECFCFCFCFCFCEC",
"ECFCFCFCFCFCFCFCFCECFCFCFCFCFCFCFCFCFCEC",
"ECFCFCFCFCFCFCFCFCFCFCFCFCFCFCFCFCFCFCEC",
"ECFCFCFCFCFCFCFCFCFCFCFCFCFCFCFCECFCFCEC",
"ECFCFCFCFCFCFCECFCFCFCFCFCFCFCFCDBFCFCEC",
"ECFCFCFCFCFCFCDBFCFCFCFCECFCFCFCFCFCFCEC",
"ECECFCFCECFCFCFCFCFCFCFCFCFCFCFCFCFCECEC",
"HCECECFCDBFCFCFCFCECFCFCFCFCFCFCFCECECCC",
"LCCCECECECECECECECECECECECECECECECECHCLC",
"LCLCHCLCLCLCLCCCLCCCLCCCHCHCHCLCHCLCLCLC",
"LCLCLCLCLCLCLCLCLCLCLCLCLCLCLCLCLCLCLCLC",
"LCLCLCLCLCLCLCLCLCLCLCLCLCLCLCLCLCLCLCLC",
"LCLCLCLCLCLCLCLCLCLCLCLCLCLCLCLCLCLCLCLC",
"LCLCLCLCLCLCLCLCLCLCLCLCLCLCLCLCLCLCLCLC",
"LCLCLCLCLCLCLCLCLCLCLCLCLCLCLCLCLCLCLCLC",
"LCLCLCLCLCLCLCLCLCLCLCLCLCLCLCLCLCLCLCLC",
"LCLCLCLCLCLCLCLCLCLCLCLCLCLCLCLCLCLCLCLC",
"LCLCLCLCLCLCLCLCLCLCLCLCLCLCLCLCLCLCLCLC",
"LCLCLCLCLCLCLCLCLCLCLCLCLCLCLCLCLCLCLCLC",
"LCLCLCLCLCLCLCLCLCLCLCLCLCLCLCLCLCLCLCLC",
"LCLCLCLCLCLCLCLCLCLCLCLCLCLCLCLCLCLCLCLC",
"LCLCLCLCLCLCLCLCLCLCLCLCLCLCLCLCLCLCLCLC",
"LCLCLCLCLCLCLCLCLCLCLCLCLCLCLCLCLCLCLCLC",
"LCLCLCLCLCLCLCLCLCLCLCLCLCLCLCLCLCLCLCLC",
"LCLCLCLCLCLCLCLCLCLCLCLCLCLCLCLCLCLCLCLC",
"LCLCLCLCLCLCLCLCLCLCLCLCLCLCLCLCLCLCLCLC",
"LCLCLCLCLCLCLCLCLCLCLCLCLCLCLCLCLCLCLCLC",
"LCLCLCLCLCLCLCLCLCLCLCLCLCLCLCLCLCLCLCLC",
"LCLCLCLCLCLCLCLCLCLCLCLCLCLCLCLCLCLCLCLC",
"LCLCLCLCLCLCLCLCLCLCLCLCLCLCLCLCLCLCLCLC",
"LCLCLCLCLCLCLCLCLCLCLCLCLCLCLCLCLCLCLCLC",
"LCLCLCLCLCLCLCLCLCLCLCLCLCLCLCLCLCLCLCLC",
"LCLCLCLCLCLCLCLCLCLCLCLCLCLCLCLCLCLCLCLC",
"LCLCLCLCLCLCLCLCLCLCLCLCLCLCLCLCLCLCLCLC",
"LCLCLCLCLCLCLCLCLCLCLCLCLCLCLCLCLCLCLCLC",
"LCLCLCLCLCLCLCLCLCLCLCLCLCLCLCLCLCLCLCLC",
"LCLCLCLCLCLCLCLCGCACACGCLCLCLCLCLCLCLCLC",
"LCLCLCLCLCLCLCGCIBLALAIBBCLCLCLCLCLCLCLC",
"LCLCLCLCLCLCLCMBLAAACALAACLCLCLCLCLCLCLC",
"LCLCLCLCLCLCLCACLACACALAACLCLCLCLCLCLCLC",
"LCLCLCLCLCLCLCGCIBLALAIBGCLCLCLCLCLCLCLC",
"LCLCLCLCLCLCLCLCGCMBMBGCLCLCLCLCLCLCLCLC",
"LCLCLCLCLCLCLCLCLCLCLCLCLCLCLCLCLCLCLCLC",
"LCLCLCLCLCLCLCLCLCLCLCLCLCLCLCLCLCLCLCLC",
"LCLCLCLCLCLCLCLCLCLCLCLCLCLCLCLCLCLCLCLC",
"LCLCLCLCLCLCLCLCLCLCLCLCLCLCLCLCLCLCLCLC",
"LCLCLCLCLCLCLCLCLCLCLCLCLCLCLCLCLCLCLCLC",
"LCLCLCLCLCLCLCLCLCLCLCLCLCLCLCLCLCLCLCLC",
"LCLCLCLCLCLCLCLCLCLCLCLCLCLCLCLCLCLCLCLC",
"LCLCLCLCLCLCLCLCLCLCLCLCLCLCLCLCLCLCLCLC",
"LCLCLCLCLCLCLCLCLCLCLCLCLCLCLCLCLCLCLCLC",
"LCLCLCLCLCLCLCLCLCLCLCLCLCLCLCLCLCLCLCLC",
"LCLCLCLCLCLCLCLCOBMBNBBCGCLCLCLCLCLCLCLC",
"LCLCLCLCLCLCBCABOAMAMAOAGBBCLCLCLCLCLCLC",
"LCLCLCLCLCBCOAIAEAEAEAEAEAOABCLCLCLCLCLC",
"LCLCLCLCBCOAIAEACAEAEACAEAEAABBCLCLCLCLC",
"LCLCLCJCIBIAEAEAEAEAEAEAEAEAEAGBGCLCLCLC",
"LCLCLCBCOAEACAEAEAEACAEAEAEAEAMAGCLCLCLC",
"LCLCLCMBMAEAEAEAEAEAEAEAEAEAEAMANBLCLCLC",
"LCLCLCNBMACAEAEACAEAEAEACAEAEAMAMBLCLCLC",
"LCLCLCOBMAEAEAEAEAEAEAEAEAEAEAOAOBLCLCLC",
"LCLCLCLCGBEAEACAEAEACAEAEACAEAGBGCLCLCLC",
"LCLCLCLCOBOAEAEAEAEAEAEAEAIAOABCLCLCLCLC",
"LCLCLCLCLCBCABEAEAEAEAEAEAOAGCLCLCLCLCLC",
"LCLCLCLCLCLCOBGBMAMAMAMAGBOBLCLCLCLCLCLC",
"LCLCLCLCLCLCLCJCOBMBNBCCGCLCLCLCLCLCLCLC",
"LCLCLCLCLCLCLCLCLCLCLCLCLCLCLCLCLCLCLCLC",
"LCLCLCLCLCLCLCLCLCLCLCLCLCLCLCLCLCLCLCLC",
"LCLCLCLCLCLCLCLCLCLCLCLCLCLCLCLCLCLCLCLC",
"LCLCLCLCLCLCLCLCLCLCLCLCLCLCLCLCLCLCLCLC",
"LCLCLCLCLCLCLCLCLCLCLCLCLCLCLCLCLCLCLCLC",
"LCLCLCLCLCLCLCLCLCLCLCLCLCLCLCLCLCLCLCLC",
"LCLCLCLCLCLCLCLCOBMBNBBCGCLCLCLCLCLCLCLC",
"LCLCLCLCLCLCBCABOAMAMAOAGBBCLCLCLCLCLCLC",
"LCLCLCLCLCBCOAIAEAEAEAEAEAOABCLCLCLCLCLC",
"LCLCLCLCBCOAIAEAEACAEAEAEAEAABBCLCLCLCLC",
"LCLCLCGCIBIAEAEAEAEAEAEAEAEAEAGBGCLCLCLC",
"LCLCLCBCOAEACAEALCLCLCLCCAEAEAOABCLCLCLC",
"LCLCLCMBMAEAEAEALCLCLCLCEAEAEAMANBLCLCLC",
"LCLCLCNBMAEAEACALCLCLCLCEAEACAOAMBLCLCLC",
"LCLCLCOBOACAEAEALCLCLCLCEAEAEAMAOBLCLCLC",
"LCLCLCLCABIAEAEAEAEACAEAEACAEAEBGCLCLCLC",
"LCLCLCJCGCOAEAEACAEAEAEAEAEAABACLCLCLCLC",
"LCLCLCLCLCOBABEAEAEAEAEAEAABOBLCLCLCLCLC",
"LCLCLCLCLCLCBCGBOAMAMAMAGBBCLCLCLCLCLCLC",
"LCLCLCLCLCLCLCJCBCNBNBBCJCLCLCLCLCLCLCLC",
"LCLCLCLCLCLCLCLCLCLCLCLCLCLCLCLCLCLCLCLC",
"LCLCLCLCLCLCLCLCLCLCLCLCLCLCLCLCLCLCLCLC",
"LCLCLCLCLCLCLCLCLCLCLCLCLCLCLCLCLCLCLCLC",
"LCLCLCLCLCLCLCLCLCLCLCLCLCLCLCLCLCLCLCLC",
"LCLCLCLCLCLCBABAJAFBLCLCLCLCLCLCLCLCLCLC",
"LCLCLCLCLCLCBABABABACBLCLCLCLCLCLCLCLCLC",
"LCLCLCLCLCLCLCHCBBBABAHCLCLCLCLCLCLCLCLC",
"LCLCLCLCLCLCLCLCLCKABAJBLCLCLCLCLCLCLCLC",
"LCLCLCLCLCLCLCLCLCKBBAKALCLCLCLCLCLCLCLC",
"LCLCLCLCLCLCLCLCLCHCBABALBLCLCLCLCLCLCLC",
"LCLCLCLCLCLCLCLCLCKBBABACBLCLCLCLCLCLCLC",
"LCLCLCLCLCLCLCLCLCJABABAHALCLCLCLCLCLCLC",
"LCLCLCLCLCLCLCLCKBBAJAJABAKBLCLCLCLCLCLC",
"LCLCLCLCLCLCLCLCJABAJBJBBANALCLCLCLCLCLC",
"LCLCLCLCLCLCLCKBBAHALCHCBABACCLCLCLCLCLC",
"LCLCLCLCLCLCLCJABAJBLCLCPABAFBLCLCLCLCLC",
"LCLCLCLCLCLCLBBAHALCLCLCLBBAHALCLCLCLCLC",
"LCLCLCLCLCLCKABAFBLCLCLCLCHABALBLCLCLCLC",
"LCLCLCLCLCLBBAHALCLCLCLCLCFBBAPALCLCLCLC",
"LCLCLCLCLCKABAFBLCLCLCLCLCHCBABAHCLCLCLC",
"LCLCLCLCLBBABALCLCLCLCLCLCLCNABAJBLCLCLC",
"LCLCLCLCNABAFBLCLCLCLCLCLCLCKBBAKALCLCLC",
"LCLCLCLCLCLCLCLCLCLCLCLCLCLCLCLCLCLCLCLC",
"LCLCLCLCLCLCLCLCLCLCLCLCLCLCLCLCLCLCLCLC",
"LCLCLCLCLCLCLCLCLCLCLCLCLCLCLCLCLCLCLCLC",
"LCLCLCLCLCLCLCLCLCLCLCLCLCLCLCLCLCLCLCLC",
"LCLCLCLCLCLCLCLCLCLCLCLCLCLCLCLCLCLCLCLC",
"LCLCLCLCLCLCLCLCLCLCLCLCLCLCLCLCLCLCLCLC",
"LCLCLCLCPBHBPBLCLCLCLCLCLCLCLCLCLCLCLCLC",
"LCLCLCPBGAGAGAPBLCLCHBHBHBHBHBHBHBHBLCLC",
"LCLCLCHBGAGAGAHBLCHBGAGAGAGAGAGAGAGAHBLC",
"LCLCLCPBGAGAGAPBLCLCHBHBHBHBHBHBHBHBJCLC",
"LCLCLCLCPBHBPBLCLCLCLCJCLCLCJCLCJCLCLCLC",
"LCLCLCLCLCLCLCLCLCLCLCLCLCLCLCLCLCLCLCLC",
"LCLCLCLCPBHBPBLCLCLCLCLCLCLCLCLCLCLCLCLC",
"LCLCLCPBGAGAGAPBLCLCHBHBHBHBHBHBHBHBLCLC",
"LCLCLCHBGAGAGAHBLCHBGAGAGAGAGAGAGAGAHBLC",
"LCLCLCPBGAGAGAPBLCLCHBHBHBHBHBHBHBHBJCLC",
"LCLCLCLCPBHBPBLCLCLCLCLCJCLCJCLCJCLCLCLC",
"LCLCLCLCLCLCLCLCLCLCLCLCLCLCLCLCLCLCLCLC",
"LCLCLCLCLCLCLCLCLCLCLCLCLCLCLCLCLCLCLCLC",
"LCLCLCLCLCLCLCLCLCLCLCLCLCLCLCLCLCLCLCLC",
"LCLCLCLCLCLCLCLCLCLCLCLCLCLCLCLCLCLCLCLC",
"LCLCLCLCLCLCLCLCLCLCLCLCLCLCLCLCLCLCLCLC",
"LCLCLCLCLCLCLCLCLCLCLCLCLCLCLCLCLCLCLCLC",
"LCLCLCLCLCLCLCLCLCLCLCLCLCLCLCLCLCLCLCLC",
"LCLCLCLCLCLCLCLCLCLCLCLCLCLCLCLCLCLCLCLC",
"LCLCLCLCLCLCLCLCLCLCLCLCLCLCLCLCLCLCLCLC",
"LCLCLCLCMBDBMBLCLCLCLCLCLCLCLCLCLCLCLCLC",
"LCLCLCMBDADADAMBLCLCDBDBDBDBDBDBDBDBLCLC",
"LCLCLCDBDADADADBLCDBDADADADADADADADADBLC",
"LCLCLCMBDADAAAMBLCLCDBDBDBDBDBDBDBDBLCLC",
"LCLCLCLCMBDBMBLCLCLCLCLCLCLCLCLCLCLCLCLC",
"LCLCLCLCLCLCLCLCLCLCLCLCLCLCLCLCLCLCLCLC",
"LCLCLCLCMBDBMBLCLCLCLCLCLCLCLCLCLCLCLCLC",
"LCLCLCMBDADADAMBLCLCDBDBDBDBDBDBDBDBLCLC",
"LCLCLCDBDADADADBLCDBDADADAAADADAAADADBLC",
"LCLCLCMBAADADAMBLCLCDBDBDBDBDBDBDBDBLCLC",
"LCLCLCLCMBDBMBLCLCLCLCLCLCLCLCLCLCLCLCLC",
"LCLCLCLCLCLCLCLCLCLCLCLCLCLCLCLCLCLCLCLC",
"LCLCLCLCLCLCLCLCLCLCLCLCLCLCLCLCLCLCLCLC",
"LCLCLCLCLCLCLCLCLCLCLCLCLCLCLCLCLCLCLCLC",
"LCLCLCLCLCLCLCLCLCLCLCLCLCLCLCLCLCLCLCLC",
"LCLCLCLCLCLCLCLCLCLCLCLCLCLCLCLCLCLCLCLC",
"LCLCLCLCLCLCLCLCLCLCLCLCLCLCLCLCLCLCLCLC",
"LCLCLCLCLCLCLCLCLCLCLCLCLCLCLCLCLCLCLCLC",
"LCLCLCLCLCLCLCLCLCLCLCLCLCLCLCLCLCLCLCLC",
"LCLCLCLCLCLCLCLCLCLCLCLCLCLCLCLCLCLCLCLC",
"LCLCLCLCKCICKCLCLCLCLCLCLCLCLCLCLCLCLCLC",
"LCLCLCKCDCDCDCKCLCLCICICICICICICICICLCLC",
"LCLCLCICDCDCDCICLCICDCDCDCDCDCDCDCDCICLC",
"LCLCLCKCDCDCDCKCJCLCICICICICICICICICLCLC",
"LCLCLCJCKCICKCLCLCLCLCLCLCLCJCLCLCLCLCLC",
"LCLCLCLCJCLCJCLCLCLCLCLCLCLCLCLCLCLCLCLC",
"LCLCLCLCKCICKCLCLCLCLCLCLCLCLCLCLCLCLCLC",
"LCLCLCKCDCDCDCKCLCLCICICICICICICICICLCLC",
"LCLCLCICDCDCDCICLCICDCDCDCDCDCDCDCDCICLC",
"LCLCLCKCDCDCDCKCJCLCICICICICICICICICLCLC",
"LCLCLCJCKCICKCLCLCLCJCLCJCLCJCLCJCLCLCLC",
"LCLCLCLCJCLCJCLCLCLCLCLCLCLCLCLCLCLCLCLC",
"LCLCLCLCLCLCLCLCLCLCLCLCLCLCLCLCLCLCLCLC",
"LCLCLCLCLCLCLCLCLCLCLCLCLCLCLCLCLCLCLCLC",
"LCLCLCLCLCLCLCLCLCLCLCLCLCLCLCLCLCLCLCLC",
"LCLCLCLCLCLCLCLCLCLCLCLCLCLCLCLCLCLCLCLC",
"LCLCLCLCLCLCLCLCLCLCLCLCLCLCLCLCLCLCLCLC",
"LCLCLCLCLCLCLCLCLCLCLCLCLCLCLCLCLCLCLCLC",
"LCLCLCLCLCLCLCLCLCLCLCLCLCLCLCLCLCLCLCLC",
"LCLCLCLCLCLCLCLCLCLCLCLCLCLCLCLCLCLCLCLC",
"LCLCLCLCOBEBOBLCLCLCLCLCLCLCLCLCLCLCLCLC",
"LCLCLCOBFAFAFAOBLCLCEBEBEBEBEBEBEBEBLCLC",
"LCLCLCEBFAFAFAEBLCEBFAFAFAFAFAFAFAFAEBLC",
"LCLCLCOBFAFAFALBLCLCEBEBEBEBEBEBEBEBLCLC",
"LCLCLCLCLBIBLBLCLCLCLCLCLCLCLCLCLCLCLCLC",
"LCLCLCLCLCLCLCLCLCLCLCLCLCLCLCLCLCLCLCLC",
"LCLCLCLCOBEBNBLCLCLCLCLCLCLCLCLCLCLCLCLC",
"LCLCLCOBFAFAFANBLCLCEBEBEBEBEBEBEBEBLCLC",
"LCLCLCEBFAFAFAEBLCEBFAFAFAFAFAFAFAFAEBLC",
"LCLCLCLBFAFAFALBLCLCEBEBEBCBIBEBEBEBLCLC",
"LCLCLCLCOBIBLBLCGCLCLCLCGCLCLCLCLCLCLCLC",
"LCLCLCLCLCLCLCLCLCLCLCLCLCLCLCLCLCLCLCLC",
"LCLCLCLCLCLCLCLCLCLCLCLCLCLCLCLCLCLCLCLC",
"LCLCLCLCLCLCLCLCLCLCLCLCLCLCLCLCLCLCLCLC",
"LCLCLCLCLCLCLCLCLCLCLCLCLCLCLCLCLCLCLCLC"};
